<svg version="1.1" xmlns="http://www.w3.org/2000/svg" xmlns:xlink="http://www.w3.org/1999/xlink" width="1051" height="607"><defs><clipPath id="llXBGrVpuBNc"><path fill="none" stroke="none" d=" M 0 0 L 1051 0 L 1051 607 L 0 607 L 0 0 Z"/></clipPath></defs><g transform="scale(1,1)" clip-path="url(#llXBGrVpuBNc)"><g><rect fill="rgb(255,255,255)" stroke="none" x="0" y="0" width="1051" height="607" fill-opacity="1"/><path fill="none" stroke="rgb(192,192,192)" paint-order="fill stroke markers" d=" M 3.5 0.5 L 3.5 607.5 M 3.5 0.5 L 3.5 607.5 M 72.5 0.5 L 72.5 607.5 M 141.5 0.5 L 141.5 607.5 M 210.5 0.5 L 210.5 607.5 M 279.5 0.5 L 279.5 607.5 M 348.5 0.5 L 348.5 607.5 M 486.5 0.5 L 486.5 607.5 M 555.5 0.5 L 555.5 607.5 M 624.5 0.5 L 624.5 607.5 M 693.5 0.5 L 693.5 607.5 M 762.5 0.5 L 762.5 607.5 M 831.5 0.5 L 831.5 607.5 M 900.5 0.5 L 900.5 607.5 M 969.5 0.5 L 969.5 607.5 M 1038.5 0.5 L 1038.5 607.5" stroke-opacity="1" stroke-linecap="round" stroke-linejoin="round" stroke-miterlimit="10"/><path fill="none" stroke="rgb(192,192,192)" paint-order="fill stroke markers" d=" M 17.5 0.5 L 17.5 607.5 M 31.5 0.5 L 31.5 607.5 M 44.5 0.5 L 44.5 607.5 M 58.5 0.5 L 58.5 607.5 M 86.5 0.5 L 86.5 607.5 M 100.5 0.5 L 100.5 607.5 M 113.5 0.5 L 113.5 607.5 M 127.5 0.5 L 127.5 607.5 M 155.5 0.5 L 155.5 607.5 M 169.5 0.5 L 169.5 607.5 M 182.5 0.5 L 182.5 607.5 M 196.5 0.5 L 196.5 607.5 M 224.5 0.5 L 224.5 607.5 M 238.5 0.5 L 238.5 607.5 M 251.5 0.5 L 251.5 607.5 M 265.5 0.5 L 265.5 607.5 M 293.5 0.5 L 293.5 607.5 M 307.5 0.5 L 307.5 607.5 M 321.5 0.5 L 321.5 607.5 M 334.5 0.5 L 334.5 607.5 M 362.5 0.5 L 362.5 607.5 M 376.5 0.5 L 376.5 607.5 M 390.5 0.5 L 390.5 607.5 M 403.5 0.5 L 403.5 607.5 M 431.5 0.5 L 431.5 607.5 M 445.5 0.5 L 445.5 607.5 M 459.5 0.5 L 459.5 607.5 M 472.5 0.5 L 472.5 607.5 M 500.5 0.5 L 500.5 607.5 M 514.5 0.5 L 514.5 607.5 M 528.5 0.5 L 528.5 607.5 M 541.5 0.5 L 541.5 607.5 M 569.5 0.5 L 569.5 607.5 M 583.5 0.5 L 583.5 607.5 M 597.5 0.5 L 597.5 607.5 M 610.5 0.5 L 610.5 607.5 M 638.5 0.5 L 638.5 607.5 M 652.5 0.5 L 652.5 607.5 M 666.5 0.5 L 666.5 607.5 M 679.5 0.5 L 679.5 607.5 M 707.5 0.5 L 707.5 607.5 M 721.5 0.5 L 721.5 607.5 M 735.5 0.5 L 735.5 607.5 M 749.5 0.5 L 749.5 607.5 M 776.5 0.5 L 776.5 607.5 M 790.5 0.5 L 790.5 607.5 M 804.5 0.5 L 804.5 607.5 M 818.5 0.5 L 818.5 607.5 M 845.5 0.5 L 845.5 607.5 M 859.5 0.5 L 859.5 607.5 M 873.5 0.5 L 873.5 607.5 M 887.5 0.5 L 887.5 607.5 M 914.5 0.5 L 914.5 607.5 M 928.5 0.5 L 928.5 607.5 M 942.5 0.5 L 942.5 607.5 M 956.5 0.5 L 956.5 607.5 M 983.5 0.5 L 983.5 607.5 M 997.5 0.5 L 997.5 607.5 M 1011.5 0.5 L 1011.5 607.5 M 1025.5 0.5 L 1025.5 607.5" stroke-opacity="0.23529411764705882" stroke-linecap="round" stroke-linejoin="round" stroke-miterlimit="10"/><path fill="none" stroke="rgb(192,192,192)" paint-order="fill stroke markers" d=" M 0.5 13.5 L 1051.5 13.5 M 0.5 13.5 L 1051.5 13.5 M 0.5 82.5 L 1051.5 82.5 M 0.5 151.5 L 1051.5 151.5 M 0.5 220.5 L 1051.5 220.5 M 0.5 290.5 L 1051.5 290.5 M 0.5 428.5 L 1051.5 428.5 M 0.5 497.5 L 1051.5 497.5 M 0.5 566.5 L 1051.5 566.5" stroke-opacity="1" stroke-linecap="round" stroke-linejoin="round" stroke-miterlimit="10"/><path fill="none" stroke="rgb(192,192,192)" paint-order="fill stroke markers" d=" M 0.5 0.5 L 1051.5 0.5 M 0.5 0.5 L 1051.5 0.5 M 0.5 27.5 L 1051.5 27.5 M 0.5 41.5 L 1051.5 41.5 M 0.5 55.5 L 1051.5 55.5 M 0.5 69.5 L 1051.5 69.5 M 0.5 96.5 L 1051.5 96.5 M 0.5 110.5 L 1051.5 110.5 M 0.5 124.5 L 1051.5 124.5 M 0.5 138.5 L 1051.5 138.5 M 0.5 165.5 L 1051.5 165.5 M 0.5 179.5 L 1051.5 179.5 M 0.5 193.5 L 1051.5 193.5 M 0.5 207.5 L 1051.5 207.5 M 0.5 234.5 L 1051.5 234.5 M 0.5 248.5 L 1051.5 248.5 M 0.5 262.5 L 1051.5 262.5 M 0.5 276.5 L 1051.5 276.5 M 0.5 303.5 L 1051.5 303.5 M 0.5 317.5 L 1051.5 317.5 M 0.5 331.5 L 1051.5 331.5 M 0.5 345.5 L 1051.5 345.5 M 0.5 372.5 L 1051.5 372.5 M 0.5 386.5 L 1051.5 386.5 M 0.5 400.5 L 1051.5 400.5 M 0.5 414.5 L 1051.5 414.5 M 0.5 441.5 L 1051.5 441.5 M 0.5 455.5 L 1051.5 455.5 M 0.5 469.5 L 1051.5 469.5 M 0.5 483.5 L 1051.5 483.5 M 0.5 510.5 L 1051.5 510.5 M 0.5 524.5 L 1051.5 524.5 M 0.5 538.5 L 1051.5 538.5 M 0.5 552.5 L 1051.5 552.5 M 0.5 579.5 L 1051.5 579.5 M 0.5 593.5 L 1051.5 593.5" stroke-opacity="0.23529411764705882" stroke-linecap="round" stroke-linejoin="round" stroke-miterlimit="10"/><path fill="none" stroke="rgb(0,0,0)" paint-order="fill stroke markers" d=" M 417.5 2.5 L 417.5 607.5" stroke-opacity="1" stroke-miterlimit="10"/><path fill="none" stroke="rgb(0,0,0)" paint-order="fill stroke markers" d=" M 417.5 1.5 L 413.5 5.5" stroke-opacity="1" stroke-miterlimit="10"/><path fill="none" stroke="rgb(0,0,0)" paint-order="fill stroke markers" d=" M 417.5 1.5 L 421.5 5.5" stroke-opacity="1" stroke-miterlimit="10"/><path fill="none" stroke="rgb(0,0,0)" paint-order="fill stroke markers" d=" M 0.5 359.5 L 1049.5 359.5" stroke-opacity="1" stroke-miterlimit="10"/><path fill="none" stroke="rgb(0,0,0)" paint-order="fill stroke markers" d=" M 1050.5 359.5 L 1046.5 355.5" stroke-opacity="1" stroke-miterlimit="10"/><path fill="none" stroke="rgb(0,0,0)" paint-order="fill stroke markers" d=" M 1050.5 359.5 L 1046.5 363.5" stroke-opacity="1" stroke-miterlimit="10"/><text fill="rgb(0,0,0)" stroke="none" font-family="geogebra-sans-serif, sans-serif" font-size="12px" font-style="normal" font-weight="normal" text-decoration="normal" x="67" y="375" text-anchor="start" dominant-baseline="alphabetic" fill-opacity="1">–1</text><text fill="none" stroke="rgb(255,255,255)" font-family="geogebra-sans-serif, sans-serif" font-size="12px" font-style="normal" font-weight="normal" text-decoration="normal" x="67" y="375" text-anchor="start" dominant-baseline="alphabetic" stroke-opacity="1" stroke-linejoin="bevel" stroke-miterlimit="10" stroke-width="3">–1</text><text fill="rgb(0,0,0)" stroke="none" font-family="geogebra-sans-serif, sans-serif" font-size="12px" font-style="normal" font-weight="normal" text-decoration="normal" x="67" y="375" text-anchor="start" dominant-baseline="alphabetic" fill-opacity="1">–1</text><text fill="rgb(0,0,0)" stroke="none" font-family="geogebra-sans-serif, sans-serif" font-size="12px" font-style="normal" font-weight="normal" text-decoration="normal" x="130" y="375" text-anchor="start" dominant-baseline="alphabetic" fill-opacity="1">–0.8</text><text fill="none" stroke="rgb(255,255,255)" font-family="geogebra-sans-serif, sans-serif" font-size="12px" font-style="normal" font-weight="normal" text-decoration="normal" x="130" y="375" text-anchor="start" dominant-baseline="alphabetic" stroke-opacity="1" stroke-linejoin="bevel" stroke-miterlimit="10" stroke-width="3">–0.8</text><text fill="rgb(0,0,0)" stroke="none" font-family="geogebra-sans-serif, sans-serif" font-size="12px" font-style="normal" font-weight="normal" text-decoration="normal" x="130" y="375" text-anchor="start" dominant-baseline="alphabetic" fill-opacity="1">–0.8</text><text fill="rgb(0,0,0)" stroke="none" font-family="geogebra-sans-serif, sans-serif" font-size="12px" font-style="normal" font-weight="normal" text-decoration="normal" x="199" y="375" text-anchor="start" dominant-baseline="alphabetic" fill-opacity="1">–0.6</text><text fill="none" stroke="rgb(255,255,255)" font-family="geogebra-sans-serif, sans-serif" font-size="12px" font-style="normal" font-weight="normal" text-decoration="normal" x="199" y="375" text-anchor="start" dominant-baseline="alphabetic" stroke-opacity="1" stroke-linejoin="bevel" stroke-miterlimit="10" stroke-width="3">–0.6</text><text fill="rgb(0,0,0)" stroke="none" font-family="geogebra-sans-serif, sans-serif" font-size="12px" font-style="normal" font-weight="normal" text-decoration="normal" x="199" y="375" text-anchor="start" dominant-baseline="alphabetic" fill-opacity="1">–0.6</text><text fill="rgb(0,0,0)" stroke="none" font-family="geogebra-sans-serif, sans-serif" font-size="12px" font-style="normal" font-weight="normal" text-decoration="normal" x="268" y="375" text-anchor="start" dominant-baseline="alphabetic" fill-opacity="1">–0.4</text><text fill="none" stroke="rgb(255,255,255)" font-family="geogebra-sans-serif, sans-serif" font-size="12px" font-style="normal" font-weight="normal" text-decoration="normal" x="268" y="375" text-anchor="start" dominant-baseline="alphabetic" stroke-opacity="1" stroke-linejoin="bevel" stroke-miterlimit="10" stroke-width="3">–0.4</text><text fill="rgb(0,0,0)" stroke="none" font-family="geogebra-sans-serif, sans-serif" font-size="12px" font-style="normal" font-weight="normal" text-decoration="normal" x="268" y="375" text-anchor="start" dominant-baseline="alphabetic" fill-opacity="1">–0.4</text><text fill="rgb(0,0,0)" stroke="none" font-family="geogebra-sans-serif, sans-serif" font-size="12px" font-style="normal" font-weight="normal" text-decoration="normal" x="337" y="375" text-anchor="start" dominant-baseline="alphabetic" fill-opacity="1">–0.2</text><text fill="none" stroke="rgb(255,255,255)" font-family="geogebra-sans-serif, sans-serif" font-size="12px" font-style="normal" font-weight="normal" text-decoration="normal" x="337" y="375" text-anchor="start" dominant-baseline="alphabetic" stroke-opacity="1" stroke-linejoin="bevel" stroke-miterlimit="10" stroke-width="3">–0.2</text><text fill="rgb(0,0,0)" stroke="none" font-family="geogebra-sans-serif, sans-serif" font-size="12px" font-style="normal" font-weight="normal" text-decoration="normal" x="337" y="375" text-anchor="start" dominant-baseline="alphabetic" fill-opacity="1">–0.2</text><text fill="rgb(0,0,0)" stroke="none" font-family="geogebra-sans-serif, sans-serif" font-size="12px" font-style="normal" font-weight="normal" text-decoration="normal" x="478" y="375" text-anchor="start" dominant-baseline="alphabetic" fill-opacity="1">0.2</text><text fill="none" stroke="rgb(255,255,255)" font-family="geogebra-sans-serif, sans-serif" font-size="12px" font-style="normal" font-weight="normal" text-decoration="normal" x="478" y="375" text-anchor="start" dominant-baseline="alphabetic" stroke-opacity="1" stroke-linejoin="bevel" stroke-miterlimit="10" stroke-width="3">0.2</text><text fill="rgb(0,0,0)" stroke="none" font-family="geogebra-sans-serif, sans-serif" font-size="12px" font-style="normal" font-weight="normal" text-decoration="normal" x="478" y="375" text-anchor="start" dominant-baseline="alphabetic" fill-opacity="1">0.2</text><text fill="rgb(0,0,0)" stroke="none" font-family="geogebra-sans-serif, sans-serif" font-size="12px" font-style="normal" font-weight="normal" text-decoration="normal" x="547" y="375" text-anchor="start" dominant-baseline="alphabetic" fill-opacity="1">0.4</text><text fill="none" stroke="rgb(255,255,255)" font-family="geogebra-sans-serif, sans-serif" font-size="12px" font-style="normal" font-weight="normal" text-decoration="normal" x="547" y="375" text-anchor="start" dominant-baseline="alphabetic" stroke-opacity="1" stroke-linejoin="bevel" stroke-miterlimit="10" stroke-width="3">0.4</text><text fill="rgb(0,0,0)" stroke="none" font-family="geogebra-sans-serif, sans-serif" font-size="12px" font-style="normal" font-weight="normal" text-decoration="normal" x="547" y="375" text-anchor="start" dominant-baseline="alphabetic" fill-opacity="1">0.4</text><text fill="rgb(0,0,0)" stroke="none" font-family="geogebra-sans-serif, sans-serif" font-size="12px" font-style="normal" font-weight="normal" text-decoration="normal" x="616" y="375" text-anchor="start" dominant-baseline="alphabetic" fill-opacity="1">0.6</text><text fill="none" stroke="rgb(255,255,255)" font-family="geogebra-sans-serif, sans-serif" font-size="12px" font-style="normal" font-weight="normal" text-decoration="normal" x="616" y="375" text-anchor="start" dominant-baseline="alphabetic" stroke-opacity="1" stroke-linejoin="bevel" stroke-miterlimit="10" stroke-width="3">0.6</text><text fill="rgb(0,0,0)" stroke="none" font-family="geogebra-sans-serif, sans-serif" font-size="12px" font-style="normal" font-weight="normal" text-decoration="normal" x="616" y="375" text-anchor="start" dominant-baseline="alphabetic" fill-opacity="1">0.6</text><text fill="rgb(0,0,0)" stroke="none" font-family="geogebra-sans-serif, sans-serif" font-size="12px" font-style="normal" font-weight="normal" text-decoration="normal" x="685" y="375" text-anchor="start" dominant-baseline="alphabetic" fill-opacity="1">0.8</text><text fill="none" stroke="rgb(255,255,255)" font-family="geogebra-sans-serif, sans-serif" font-size="12px" font-style="normal" font-weight="normal" text-decoration="normal" x="685" y="375" text-anchor="start" dominant-baseline="alphabetic" stroke-opacity="1" stroke-linejoin="bevel" stroke-miterlimit="10" stroke-width="3">0.8</text><text fill="rgb(0,0,0)" stroke="none" font-family="geogebra-sans-serif, sans-serif" font-size="12px" font-style="normal" font-weight="normal" text-decoration="normal" x="685" y="375" text-anchor="start" dominant-baseline="alphabetic" fill-opacity="1">0.8</text><text fill="rgb(0,0,0)" stroke="none" font-family="geogebra-sans-serif, sans-serif" font-size="12px" font-style="normal" font-weight="normal" text-decoration="normal" x="760" y="375" text-anchor="start" dominant-baseline="alphabetic" fill-opacity="1">1</text><text fill="none" stroke="rgb(255,255,255)" font-family="geogebra-sans-serif, sans-serif" font-size="12px" font-style="normal" font-weight="normal" text-decoration="normal" x="760" y="375" text-anchor="start" dominant-baseline="alphabetic" stroke-opacity="1" stroke-linejoin="bevel" stroke-miterlimit="10" stroke-width="3">1</text><text fill="rgb(0,0,0)" stroke="none" font-family="geogebra-sans-serif, sans-serif" font-size="12px" font-style="normal" font-weight="normal" text-decoration="normal" x="760" y="375" text-anchor="start" dominant-baseline="alphabetic" fill-opacity="1">1</text><text fill="rgb(0,0,0)" stroke="none" font-family="geogebra-sans-serif, sans-serif" font-size="12px" font-style="normal" font-weight="normal" text-decoration="normal" x="823" y="375" text-anchor="start" dominant-baseline="alphabetic" fill-opacity="1">1.2</text><text fill="none" stroke="rgb(255,255,255)" font-family="geogebra-sans-serif, sans-serif" font-size="12px" font-style="normal" font-weight="normal" text-decoration="normal" x="823" y="375" text-anchor="start" dominant-baseline="alphabetic" stroke-opacity="1" stroke-linejoin="bevel" stroke-miterlimit="10" stroke-width="3">1.2</text><text fill="rgb(0,0,0)" stroke="none" font-family="geogebra-sans-serif, sans-serif" font-size="12px" font-style="normal" font-weight="normal" text-decoration="normal" x="823" y="375" text-anchor="start" dominant-baseline="alphabetic" fill-opacity="1">1.2</text><text fill="rgb(0,0,0)" stroke="none" font-family="geogebra-sans-serif, sans-serif" font-size="12px" font-style="normal" font-weight="normal" text-decoration="normal" x="892" y="375" text-anchor="start" dominant-baseline="alphabetic" fill-opacity="1">1.4</text><text fill="none" stroke="rgb(255,255,255)" font-family="geogebra-sans-serif, sans-serif" font-size="12px" font-style="normal" font-weight="normal" text-decoration="normal" x="892" y="375" text-anchor="start" dominant-baseline="alphabetic" stroke-opacity="1" stroke-linejoin="bevel" stroke-miterlimit="10" stroke-width="3">1.4</text><text fill="rgb(0,0,0)" stroke="none" font-family="geogebra-sans-serif, sans-serif" font-size="12px" font-style="normal" font-weight="normal" text-decoration="normal" x="892" y="375" text-anchor="start" dominant-baseline="alphabetic" fill-opacity="1">1.4</text><text fill="rgb(0,0,0)" stroke="none" font-family="geogebra-sans-serif, sans-serif" font-size="12px" font-style="normal" font-weight="normal" text-decoration="normal" x="961" y="375" text-anchor="start" dominant-baseline="alphabetic" fill-opacity="1">1.6</text><text fill="none" stroke="rgb(255,255,255)" font-family="geogebra-sans-serif, sans-serif" font-size="12px" font-style="normal" font-weight="normal" text-decoration="normal" x="961" y="375" text-anchor="start" dominant-baseline="alphabetic" stroke-opacity="1" stroke-linejoin="bevel" stroke-miterlimit="10" stroke-width="3">1.6</text><text fill="rgb(0,0,0)" stroke="none" font-family="geogebra-sans-serif, sans-serif" font-size="12px" font-style="normal" font-weight="normal" text-decoration="normal" x="961" y="375" text-anchor="start" dominant-baseline="alphabetic" fill-opacity="1">1.6</text><text fill="rgb(0,0,0)" stroke="none" font-family="geogebra-sans-serif, sans-serif" font-size="12px" font-style="normal" font-weight="normal" text-decoration="normal" x="1030" y="375" text-anchor="start" dominant-baseline="alphabetic" fill-opacity="1">1.8</text><text fill="none" stroke="rgb(255,255,255)" font-family="geogebra-sans-serif, sans-serif" font-size="12px" font-style="normal" font-weight="normal" text-decoration="normal" x="1030" y="375" text-anchor="start" dominant-baseline="alphabetic" stroke-opacity="1" stroke-linejoin="bevel" stroke-miterlimit="10" stroke-width="3">1.8</text><text fill="rgb(0,0,0)" stroke="none" font-family="geogebra-sans-serif, sans-serif" font-size="12px" font-style="normal" font-weight="normal" text-decoration="normal" x="1030" y="375" text-anchor="start" dominant-baseline="alphabetic" fill-opacity="1">1.8</text><text fill="rgb(0,0,0)" stroke="none" font-family="geogebra-sans-serif, sans-serif" font-size="12px" font-style="normal" font-weight="normal" text-decoration="normal" x="384" y="571" text-anchor="start" dominant-baseline="alphabetic" fill-opacity="1">–0.6</text><text fill="none" stroke="rgb(255,255,255)" font-family="geogebra-sans-serif, sans-serif" font-size="12px" font-style="normal" font-weight="normal" text-decoration="normal" x="384" y="571" text-anchor="start" dominant-baseline="alphabetic" stroke-opacity="1" stroke-linejoin="bevel" stroke-miterlimit="10" stroke-width="3">–0.6</text><text fill="rgb(0,0,0)" stroke="none" font-family="geogebra-sans-serif, sans-serif" font-size="12px" font-style="normal" font-weight="normal" text-decoration="normal" x="384" y="571" text-anchor="start" dominant-baseline="alphabetic" fill-opacity="1">–0.6</text><text fill="rgb(0,0,0)" stroke="none" font-family="geogebra-sans-serif, sans-serif" font-size="12px" font-style="normal" font-weight="normal" text-decoration="normal" x="384" y="502" text-anchor="start" dominant-baseline="alphabetic" fill-opacity="1">–0.4</text><text fill="none" stroke="rgb(255,255,255)" font-family="geogebra-sans-serif, sans-serif" font-size="12px" font-style="normal" font-weight="normal" text-decoration="normal" x="384" y="502" text-anchor="start" dominant-baseline="alphabetic" stroke-opacity="1" stroke-linejoin="bevel" stroke-miterlimit="10" stroke-width="3">–0.4</text><text fill="rgb(0,0,0)" stroke="none" font-family="geogebra-sans-serif, sans-serif" font-size="12px" font-style="normal" font-weight="normal" text-decoration="normal" x="384" y="502" text-anchor="start" dominant-baseline="alphabetic" fill-opacity="1">–0.4</text><text fill="rgb(0,0,0)" stroke="none" font-family="geogebra-sans-serif, sans-serif" font-size="12px" font-style="normal" font-weight="normal" text-decoration="normal" x="384" y="433" text-anchor="start" dominant-baseline="alphabetic" fill-opacity="1">–0.2</text><text fill="none" stroke="rgb(255,255,255)" font-family="geogebra-sans-serif, sans-serif" font-size="12px" font-style="normal" font-weight="normal" text-decoration="normal" x="384" y="433" text-anchor="start" dominant-baseline="alphabetic" stroke-opacity="1" stroke-linejoin="bevel" stroke-miterlimit="10" stroke-width="3">–0.2</text><text fill="rgb(0,0,0)" stroke="none" font-family="geogebra-sans-serif, sans-serif" font-size="12px" font-style="normal" font-weight="normal" text-decoration="normal" x="384" y="433" text-anchor="start" dominant-baseline="alphabetic" fill-opacity="1">–0.2</text><text fill="rgb(0,0,0)" stroke="none" font-family="geogebra-sans-serif, sans-serif" font-size="12px" font-style="normal" font-weight="normal" text-decoration="normal" x="390" y="295" text-anchor="start" dominant-baseline="alphabetic" fill-opacity="1">0.2</text><text fill="none" stroke="rgb(255,255,255)" font-family="geogebra-sans-serif, sans-serif" font-size="12px" font-style="normal" font-weight="normal" text-decoration="normal" x="390" y="295" text-anchor="start" dominant-baseline="alphabetic" stroke-opacity="1" stroke-linejoin="bevel" stroke-miterlimit="10" stroke-width="3">0.2</text><text fill="rgb(0,0,0)" stroke="none" font-family="geogebra-sans-serif, sans-serif" font-size="12px" font-style="normal" font-weight="normal" text-decoration="normal" x="390" y="295" text-anchor="start" dominant-baseline="alphabetic" fill-opacity="1">0.2</text><text fill="rgb(0,0,0)" stroke="none" font-family="geogebra-sans-serif, sans-serif" font-size="12px" font-style="normal" font-weight="normal" text-decoration="normal" x="390" y="225" text-anchor="start" dominant-baseline="alphabetic" fill-opacity="1">0.4</text><text fill="none" stroke="rgb(255,255,255)" font-family="geogebra-sans-serif, sans-serif" font-size="12px" font-style="normal" font-weight="normal" text-decoration="normal" x="390" y="225" text-anchor="start" dominant-baseline="alphabetic" stroke-opacity="1" stroke-linejoin="bevel" stroke-miterlimit="10" stroke-width="3">0.4</text><text fill="rgb(0,0,0)" stroke="none" font-family="geogebra-sans-serif, sans-serif" font-size="12px" font-style="normal" font-weight="normal" text-decoration="normal" x="390" y="225" text-anchor="start" dominant-baseline="alphabetic" fill-opacity="1">0.4</text><text fill="rgb(0,0,0)" stroke="none" font-family="geogebra-sans-serif, sans-serif" font-size="12px" font-style="normal" font-weight="normal" text-decoration="normal" x="390" y="156" text-anchor="start" dominant-baseline="alphabetic" fill-opacity="1">0.6</text><text fill="none" stroke="rgb(255,255,255)" font-family="geogebra-sans-serif, sans-serif" font-size="12px" font-style="normal" font-weight="normal" text-decoration="normal" x="390" y="156" text-anchor="start" dominant-baseline="alphabetic" stroke-opacity="1" stroke-linejoin="bevel" stroke-miterlimit="10" stroke-width="3">0.6</text><text fill="rgb(0,0,0)" stroke="none" font-family="geogebra-sans-serif, sans-serif" font-size="12px" font-style="normal" font-weight="normal" text-decoration="normal" x="390" y="156" text-anchor="start" dominant-baseline="alphabetic" fill-opacity="1">0.6</text><text fill="rgb(0,0,0)" stroke="none" font-family="geogebra-sans-serif, sans-serif" font-size="12px" font-style="normal" font-weight="normal" text-decoration="normal" x="390" y="87" text-anchor="start" dominant-baseline="alphabetic" fill-opacity="1">0.8</text><text fill="none" stroke="rgb(255,255,255)" font-family="geogebra-sans-serif, sans-serif" font-size="12px" font-style="normal" font-weight="normal" text-decoration="normal" x="390" y="87" text-anchor="start" dominant-baseline="alphabetic" stroke-opacity="1" stroke-linejoin="bevel" stroke-miterlimit="10" stroke-width="3">0.8</text><text fill="rgb(0,0,0)" stroke="none" font-family="geogebra-sans-serif, sans-serif" font-size="12px" font-style="normal" font-weight="normal" text-decoration="normal" x="390" y="87" text-anchor="start" dominant-baseline="alphabetic" fill-opacity="1">0.8</text><text fill="rgb(0,0,0)" stroke="none" font-family="geogebra-sans-serif, sans-serif" font-size="12px" font-style="normal" font-weight="normal" text-decoration="normal" x="402" y="18" text-anchor="start" dominant-baseline="alphabetic" fill-opacity="1">1</text><text fill="none" stroke="rgb(255,255,255)" font-family="geogebra-sans-serif, sans-serif" font-size="12px" font-style="normal" font-weight="normal" text-decoration="normal" x="402" y="18" text-anchor="start" dominant-baseline="alphabetic" stroke-opacity="1" stroke-linejoin="bevel" stroke-miterlimit="10" stroke-width="3">1</text><text fill="rgb(0,0,0)" stroke="none" font-family="geogebra-sans-serif, sans-serif" font-size="12px" font-style="normal" font-weight="normal" text-decoration="normal" x="402" y="18" text-anchor="start" dominant-baseline="alphabetic" fill-opacity="1">1</text><text fill="rgb(0,0,0)" stroke="none" font-family="geogebra-sans-serif, sans-serif" font-size="12px" font-style="normal" font-weight="normal" text-decoration="normal" x="402" y="375" text-anchor="start" dominant-baseline="alphabetic" fill-opacity="1">0</text><text fill="none" stroke="rgb(255,255,255)" font-family="geogebra-sans-serif, sans-serif" font-size="12px" font-style="normal" font-weight="normal" text-decoration="normal" x="402" y="375" text-anchor="start" dominant-baseline="alphabetic" stroke-opacity="1" stroke-linejoin="bevel" stroke-miterlimit="10" stroke-width="3">0</text><text fill="rgb(0,0,0)" stroke="none" font-family="geogebra-sans-serif, sans-serif" font-size="12px" font-style="normal" font-weight="normal" text-decoration="normal" x="402" y="375" text-anchor="start" dominant-baseline="alphabetic" fill-opacity="1">0</text><path fill="rgb(0,0,255)" stroke="none" paint-order="stroke fill markers" d=" M 624.757269845983 359.0640723294456 C 624.757269845983 473.4446951823819 532.0334544757392 566.1685105526262 417.65283162280343 566.1685105526262 C 303.2722087698677 566.1685105526262 210.5483933996238 473.4446951823819 210.5483933996238 359.0640723294456 C 210.5483933996238 244.68344947650928 303.2722087698677 151.95963410626493 417.65283162280343 151.95963410626493 C 532.0334544757392 151.95963410626493 624.757269845983 244.68344947650928 624.757269845983 359.0640723294456 Z" fill-opacity="0.6"/><path fill="none" stroke="rgb(0,0,255)" paint-order="fill stroke markers" d=" M 624.757269845983 359.0640723294456 C 624.757269845983 473.4446951823819 532.0334544757392 566.1685105526262 417.65283162280343 566.1685105526262 C 303.2722087698677 566.1685105526262 210.5483933996238 473.4446951823819 210.5483933996238 359.0640723294456 C 210.5483933996238 244.68344947650928 303.2722087698677 151.95963410626493 417.65283162280343 151.95963410626493 C 532.0334544757392 151.95963410626493 624.757269845983 244.68344947650928 624.757269845983 359.0640723294456 Z" stroke-opacity="0.6980392156862745" stroke-linecap="round" stroke-linejoin="round" stroke-miterlimit="10" stroke-width="2.5"/><text fill="rgb(0,0,255)" stroke="none" font-family="geogebra-sans-serif, sans-serif" font-size="16px" font-style="normal" font-weight="normal" text-decoration="normal" x="314" y="203" text-anchor="start" dominant-baseline="alphabetic" fill-opacity="1">eq1</text><text fill="none" stroke="rgb(255,255,255)" font-family="geogebra-sans-serif, sans-serif" font-size="16px" font-style="normal" font-weight="normal" text-decoration="normal" x="314" y="203" text-anchor="start" dominant-baseline="alphabetic" stroke-opacity="1" stroke-linejoin="bevel" stroke-miterlimit="10" stroke-width="3">eq1</text><text fill="rgb(0,0,255)" stroke="none" font-family="geogebra-sans-serif, sans-serif" font-size="16px" font-style="normal" font-weight="normal" text-decoration="normal" x="314" y="203" text-anchor="start" dominant-baseline="alphabetic" fill-opacity="1">eq1</text><path fill="rgb(255,215,0)" stroke="none" paint-order="stroke fill markers" d=" M 438.5045714076797 296.7447911873579 C 438.5045714076797 353.9351026138261 392.14266372255776 400.2970102989483 334.9523522960899 400.2970102989483 C 277.762040869622 400.2970102989483 231.40013318450008 353.9351026138261 231.40013318450008 296.7447911873579 C 231.40013318450008 239.55447976088976 277.762040869622 193.1925720757676 334.9523522960899 193.1925720757676 C 392.14266372255776 193.1925720757676 438.5045714076797 239.55447976088976 438.5045714076797 296.7447911873579 Z" fill-opacity="0.6666666666666666"/><path fill="none" stroke="rgb(255,215,0)" paint-order="fill stroke markers" d=" M 438.5045714076797 296.7447911873579 C 438.5045714076797 353.9351026138261 392.14266372255776 400.2970102989483 334.9523522960899 400.2970102989483 C 277.762040869622 400.2970102989483 231.40013318450008 353.9351026138261 231.40013318450008 296.7447911873579 C 231.40013318450008 239.55447976088976 277.762040869622 193.1925720757676 334.9523522960899 193.1925720757676 C 392.14266372255776 193.1925720757676 438.5045714076797 239.55447976088976 438.5045714076797 296.7447911873579 Z" stroke-opacity="0.6980392156862745" stroke-linecap="round" stroke-linejoin="round" stroke-miterlimit="10" stroke-width="2.5"/><text fill="rgb(255,215,0)" stroke="none" font-family="geogebra-sans-serif, sans-serif" font-size="16px" font-style="normal" font-weight="normal" text-decoration="normal" x="283" y="228" text-anchor="start" dominant-baseline="alphabetic" fill-opacity="1">c</text><text fill="none" stroke="rgb(255,255,255)" font-family="geogebra-sans-serif, sans-serif" font-size="16px" font-style="normal" font-weight="normal" text-decoration="normal" x="283" y="228" text-anchor="start" dominant-baseline="alphabetic" stroke-opacity="1" stroke-linejoin="bevel" stroke-miterlimit="10" stroke-width="3">c</text><text fill="rgb(255,215,0)" stroke="none" font-family="geogebra-sans-serif, sans-serif" font-size="16px" font-style="normal" font-weight="normal" text-decoration="normal" x="283" y="228" text-anchor="start" dominant-baseline="alphabetic" fill-opacity="1">c</text><path fill="rgb(255,215,0)" stroke="none" paint-order="stroke fill markers" d=" M 438.5045714076797 421.38335347153327 C 438.5045714076797 478.5736648980014 392.14266372255776 524.9355725831236 334.9523522960899 524.9355725831236 C 277.762040869622 524.9355725831236 231.40013318450008 478.5736648980014 231.40013318450008 421.38335347153327 C 231.40013318450008 364.1930420450651 277.762040869622 317.83113435994295 334.9523522960899 317.83113435994295 C 392.14266372255776 317.83113435994295 438.5045714076797 364.1930420450651 438.5045714076797 421.38335347153327 Z" fill-opacity="0.6784313725490196"/><path fill="none" stroke="rgb(255,215,0)" paint-order="fill stroke markers" d=" M 438.5045714076797 421.38335347153327 C 438.5045714076797 478.5736648980014 392.14266372255776 524.9355725831236 334.9523522960899 524.9355725831236 C 277.762040869622 524.9355725831236 231.40013318450008 478.5736648980014 231.40013318450008 421.38335347153327 C 231.40013318450008 364.1930420450651 277.762040869622 317.83113435994295 334.9523522960899 317.83113435994295 C 392.14266372255776 317.83113435994295 438.5045714076797 364.1930420450651 438.5045714076797 421.38335347153327 Z" stroke-opacity="0.6980392156862745" stroke-linecap="round" stroke-linejoin="round" stroke-miterlimit="10" stroke-width="2.5"/><text fill="rgb(255,215,0)" stroke="none" font-family="geogebra-sans-serif, sans-serif" font-size="16px" font-style="normal" font-weight="normal" text-decoration="normal" x="283" y="353" text-anchor="start" dominant-baseline="alphabetic" fill-opacity="1">d</text><text fill="none" stroke="rgb(255,255,255)" font-family="geogebra-sans-serif, sans-serif" font-size="16px" font-style="normal" font-weight="normal" text-decoration="normal" x="283" y="353" text-anchor="start" dominant-baseline="alphabetic" stroke-opacity="1" stroke-linejoin="bevel" stroke-miterlimit="10" stroke-width="3">d</text><text fill="rgb(255,215,0)" stroke="none" font-family="geogebra-sans-serif, sans-serif" font-size="16px" font-style="normal" font-weight="normal" text-decoration="normal" x="283" y="353" text-anchor="start" dominant-baseline="alphabetic" fill-opacity="1">d</text><path fill="rgb(255,0,51)" stroke="none" paint-order="stroke fill markers" d=" M 528.9299651670069 359.0640723294456 C 528.9299651670069 420.5207361907941 479.1094954841516 470.3412058736495 417.65283162280343 470.3412058736495 C 356.1961677614553 470.3412058736495 306.3756980786 420.5207361907941 306.3756980786 359.0640723294456 C 306.3756980786 297.6074084680971 356.1961677614553 247.78693878524163 417.65283162280343 247.78693878524163 C 479.1094954841516 247.78693878524163 528.9299651670069 297.6074084680971 528.9299651670069 359.0640723294456 Z" fill-opacity="0.6078431372549019"/><path fill="none" stroke="rgb(255,0,51)" paint-order="fill stroke markers" d=" M 528.9299651670069 359.0640723294456 C 528.9299651670069 420.5207361907941 479.1094954841516 470.3412058736495 417.65283162280343 470.3412058736495 C 356.1961677614553 470.3412058736495 306.3756980786 420.5207361907941 306.3756980786 359.0640723294456 C 306.3756980786 297.6074084680971 356.1961677614553 247.78693878524163 417.65283162280343 247.78693878524163 C 479.1094954841516 247.78693878524163 528.9299651670069 297.6074084680971 528.9299651670069 359.0640723294456 Z" stroke-opacity="0.6980392156862745" stroke-linecap="round" stroke-linejoin="round" stroke-miterlimit="10" stroke-width="2.5"/><text fill="rgb(255,0,51)" stroke="none" font-family="geogebra-sans-serif, sans-serif" font-size="16px" font-style="normal" font-weight="normal" text-decoration="normal" x="362" y="284" text-anchor="start" dominant-baseline="alphabetic" fill-opacity="1">eq2</text><text fill="none" stroke="rgb(255,255,255)" font-family="geogebra-sans-serif, sans-serif" font-size="16px" font-style="normal" font-weight="normal" text-decoration="normal" x="362" y="284" text-anchor="start" dominant-baseline="alphabetic" stroke-opacity="1" stroke-linejoin="bevel" stroke-miterlimit="10" stroke-width="3">eq2</text><text fill="rgb(255,0,51)" stroke="none" font-family="geogebra-sans-serif, sans-serif" font-size="16px" font-style="normal" font-weight="normal" text-decoration="normal" x="362" y="284" text-anchor="start" dominant-baseline="alphabetic" fill-opacity="1">eq2</text><path fill="rgb(64,64,64)" stroke="none" paint-order="stroke fill markers" d=" M 339.9523522960899 296.7447911873579 C 339.9523522960899 299.50621493651187 337.71377604524383 301.7447911873579 334.9523522960899 301.7447911873579 C 332.19092854693594 301.7447911873579 329.9523522960899 299.50621493651187 329.9523522960899 296.7447911873579 C 329.9523522960899 293.98336743820397 332.19092854693594 291.7447911873579 334.9523522960899 291.7447911873579 C 337.71377604524383 291.7447911873579 339.9523522960899 293.98336743820397 339.9523522960899 296.7447911873579 Z" fill-opacity="1"/><path fill="none" stroke="rgb(0,0,0)" paint-order="fill stroke markers" d=" M 339.9523522960899 296.7447911873579 C 339.9523522960899 299.50621493651187 337.71377604524383 301.7447911873579 334.9523522960899 301.7447911873579 C 332.19092854693594 301.7447911873579 329.9523522960899 299.50621493651187 329.9523522960899 296.7447911873579 C 329.9523522960899 293.98336743820397 332.19092854693594 291.7447911873579 334.9523522960899 291.7447911873579 C 337.71377604524383 291.7447911873579 339.9523522960899 293.98336743820397 339.9523522960899 296.7447911873579 Z" stroke-opacity="1" stroke-linecap="round" stroke-linejoin="round" stroke-miterlimit="10"/><text fill="rgb(64,64,64)" stroke="none" font-family="geogebra-sans-serif, sans-serif" font-size="16px" font-style="normal" font-weight="normal" text-decoration="normal" x="339" y="287" text-anchor="start" dominant-baseline="alphabetic" fill-opacity="1">C</text><text fill="none" stroke="rgb(255,255,255)" font-family="geogebra-sans-serif, sans-serif" font-size="16px" font-style="normal" font-weight="normal" text-decoration="normal" x="339" y="287" text-anchor="start" dominant-baseline="alphabetic" stroke-opacity="1" stroke-linejoin="bevel" stroke-miterlimit="10" stroke-width="3">C</text><text fill="rgb(64,64,64)" stroke="none" font-family="geogebra-sans-serif, sans-serif" font-size="16px" font-style="normal" font-weight="normal" text-decoration="normal" x="339" y="287" text-anchor="start" dominant-baseline="alphabetic" fill-opacity="1">C</text><path fill="rgb(77,77,255)" stroke="none" paint-order="stroke fill markers" d=" M 339.9523522960899 421.38335347153327 C 339.9523522960899 424.1447772206872 337.71377604524383 426.38335347153327 334.9523522960899 426.38335347153327 C 332.19092854693594 426.38335347153327 329.9523522960899 424.1447772206872 329.9523522960899 421.38335347153327 C 329.9523522960899 418.6219297223793 332.19092854693594 416.38335347153327 334.9523522960899 416.38335347153327 C 337.71377604524383 416.38335347153327 339.9523522960899 418.6219297223793 339.9523522960899 421.38335347153327 Z" fill-opacity="1"/><path fill="none" stroke="rgb(0,0,0)" paint-order="fill stroke markers" d=" M 339.9523522960899 421.38335347153327 C 339.9523522960899 424.1447772206872 337.71377604524383 426.38335347153327 334.9523522960899 426.38335347153327 C 332.19092854693594 426.38335347153327 329.9523522960899 424.1447772206872 329.9523522960899 421.38335347153327 C 329.9523522960899 418.6219297223793 332.19092854693594 416.38335347153327 334.9523522960899 416.38335347153327 C 337.71377604524383 416.38335347153327 339.9523522960899 418.6219297223793 339.9523522960899 421.38335347153327 Z" stroke-opacity="1" stroke-linecap="round" stroke-linejoin="round" stroke-miterlimit="10"/><text fill="rgb(77,77,255)" stroke="none" font-family="geogebra-sans-serif, sans-serif" font-size="16px" font-style="normal" font-weight="normal" text-decoration="normal" x="339" y="411" text-anchor="start" dominant-baseline="alphabetic" fill-opacity="1">B</text><text fill="none" stroke="rgb(255,255,255)" font-family="geogebra-sans-serif, sans-serif" font-size="16px" font-style="normal" font-weight="normal" text-decoration="normal" x="339" y="411" text-anchor="start" dominant-baseline="alphabetic" stroke-opacity="1" stroke-linejoin="bevel" stroke-miterlimit="10" stroke-width="3">B</text><text fill="rgb(77,77,255)" stroke="none" font-family="geogebra-sans-serif, sans-serif" font-size="16px" font-style="normal" font-weight="normal" text-decoration="normal" x="339" y="411" text-anchor="start" dominant-baseline="alphabetic" fill-opacity="1">B</text><path fill="rgb(68,68,68)" stroke="none" paint-order="stroke fill markers" d=" M 421.65283162280343 359.0640723294456 C 421.65283162280343 361.27321132876875 419.8619706221266 363.0640723294456 417.65283162280343 363.0640723294456 C 415.4436926234803 363.0640723294456 413.65283162280343 361.27321132876875 413.65283162280343 359.0640723294456 C 413.65283162280343 356.85493333012244 415.4436926234803 355.0640723294456 417.65283162280343 355.0640723294456 C 419.8619706221266 355.0640723294456 421.65283162280343 356.85493333012244 421.65283162280343 359.0640723294456 Z" fill-opacity="1"/><path fill="none" stroke="rgb(0,0,0)" paint-order="fill stroke markers" d=" M 421.65283162280343 359.0640723294456 C 421.65283162280343 361.27321132876875 419.8619706221266 363.0640723294456 417.65283162280343 363.0640723294456 C 415.4436926234803 363.0640723294456 413.65283162280343 361.27321132876875 413.65283162280343 359.0640723294456 C 413.65283162280343 356.85493333012244 415.4436926234803 355.0640723294456 417.65283162280343 355.0640723294456 C 419.8619706221266 355.0640723294456 421.65283162280343 356.85493333012244 421.65283162280343 359.0640723294456 Z" stroke-opacity="1" stroke-linecap="round" stroke-linejoin="round" stroke-miterlimit="10"/><text fill="rgb(68,68,68)" stroke="none" font-family="geogebra-sans-serif, sans-serif" font-size="16px" font-style="normal" font-weight="normal" text-decoration="normal" x="422" y="351" text-anchor="start" dominant-baseline="alphabetic" fill-opacity="1">A</text><text fill="none" stroke="rgb(255,255,255)" font-family="geogebra-sans-serif, sans-serif" font-size="16px" font-style="normal" font-weight="normal" text-decoration="normal" x="422" y="351" text-anchor="start" dominant-baseline="alphabetic" stroke-opacity="1" stroke-linejoin="bevel" stroke-miterlimit="10" stroke-width="3">A</text><text fill="rgb(68,68,68)" stroke="none" font-family="geogebra-sans-serif, sans-serif" font-size="16px" font-style="normal" font-weight="normal" text-decoration="normal" x="422" y="351" text-anchor="start" dominant-baseline="alphabetic" fill-opacity="1">A</text></g></g></svg>