<svg version="1.1" xmlns="http://www.w3.org/2000/svg" xmlns:xlink="http://www.w3.org/1999/xlink" width="719" height="607"><defs><clipPath id="lNIBWOmXxHhV"><path fill="none" stroke="none" d=" M 0 0 L 719 0 L 719 607 L 0 607 L 0 0 Z"/></clipPath></defs><g transform="scale(1,1)" clip-path="url(#lNIBWOmXxHhV)"><g><rect fill="rgb(255,255,255)" stroke="none" x="0" y="0" width="719" height="607" fill-opacity="1"/><path fill="none" stroke="rgb(192,192,192)" paint-order="fill stroke markers" d=" M 52.5 0.5 L 52.5 607.5 M 52.5 0.5 L 52.5 607.5 M 106.5 0.5 L 106.5 607.5 M 161.5 0.5 L 161.5 607.5 M 215.5 0.5 L 215.5 607.5 M 269.5 0.5 L 269.5 607.5 M 323.5 0.5 L 323.5 607.5 M 377.5 0.5 L 377.5 607.5 M 431.5 0.5 L 431.5 607.5 M 540.5 0.5 L 540.5 607.5 M 594.5 0.5 L 594.5 607.5 M 648.5 0.5 L 648.5 607.5 M 702.5 0.5 L 702.5 607.5" stroke-opacity="1" stroke-linecap="round" stroke-linejoin="round" stroke-miterlimit="10"/><path fill="none" stroke="rgb(192,192,192)" paint-order="fill stroke markers" d=" M 9.5 0.5 L 9.5 607.5 M 20.5 0.5 L 20.5 607.5 M 30.5 0.5 L 30.5 607.5 M 41.5 0.5 L 41.5 607.5 M 63.5 0.5 L 63.5 607.5 M 74.5 0.5 L 74.5 607.5 M 85.5 0.5 L 85.5 607.5 M 96.5 0.5 L 96.5 607.5 M 117.5 0.5 L 117.5 607.5 M 128.5 0.5 L 128.5 607.5 M 139.5 0.5 L 139.5 607.5 M 150.5 0.5 L 150.5 607.5 M 171.5 0.5 L 171.5 607.5 M 182.5 0.5 L 182.5 607.5 M 193.5 0.5 L 193.5 607.5 M 204.5 0.5 L 204.5 607.5 M 226.5 0.5 L 226.5 607.5 M 236.5 0.5 L 236.5 607.5 M 247.5 0.5 L 247.5 607.5 M 258.5 0.5 L 258.5 607.5 M 280.5 0.5 L 280.5 607.5 M 291.5 0.5 L 291.5 607.5 M 301.5 0.5 L 301.5 607.5 M 312.5 0.5 L 312.5 607.5 M 334.5 0.5 L 334.5 607.5 M 345.5 0.5 L 345.5 607.5 M 356.5 0.5 L 356.5 607.5 M 366.5 0.5 L 366.5 607.5 M 388.5 0.5 L 388.5 607.5 M 399.5 0.5 L 399.5 607.5 M 410.5 0.5 L 410.5 607.5 M 421.5 0.5 L 421.5 607.5 M 442.5 0.5 L 442.5 607.5 M 453.5 0.5 L 453.5 607.5 M 464.5 0.5 L 464.5 607.5 M 475.5 0.5 L 475.5 607.5 M 496.5 0.5 L 496.5 607.5 M 507.5 0.5 L 507.5 607.5 M 518.5 0.5 L 518.5 607.5 M 529.5 0.5 L 529.5 607.5 M 551.5 0.5 L 551.5 607.5 M 561.5 0.5 L 561.5 607.5 M 572.5 0.5 L 572.5 607.5 M 583.5 0.5 L 583.5 607.5 M 605.5 0.5 L 605.5 607.5 M 616.5 0.5 L 616.5 607.5 M 627.5 0.5 L 627.5 607.5 M 637.5 0.5 L 637.5 607.5 M 659.5 0.5 L 659.5 607.5 M 670.5 0.5 L 670.5 607.5 M 681.5 0.5 L 681.5 607.5 M 692.5 0.5 L 692.5 607.5 M 713.5 0.5 L 713.5 607.5" stroke-opacity="0.23529411764705882" stroke-linecap="round" stroke-linejoin="round" stroke-miterlimit="10"/><path fill="none" stroke="rgb(192,192,192)" paint-order="fill stroke markers" d=" M 0.5 37.5 L 719.5 37.5 M 0.5 37.5 L 719.5 37.5 M 0.5 92.5 L 719.5 92.5 M 0.5 146.5 L 719.5 146.5 M 0.5 200.5 L 719.5 200.5 M 0.5 254.5 L 719.5 254.5 M 0.5 308.5 L 719.5 308.5 M 0.5 417.5 L 719.5 417.5 M 0.5 471.5 L 719.5 471.5 M 0.5 525.5 L 719.5 525.5 M 0.5 579.5 L 719.5 579.5" stroke-opacity="1" stroke-linecap="round" stroke-linejoin="round" stroke-miterlimit="10"/><path fill="none" stroke="rgb(192,192,192)" paint-order="fill stroke markers" d=" M 0.5 5.5 L 719.5 5.5 M 0.5 5.5 L 719.5 5.5 M 0.5 16.5 L 719.5 16.5 M 0.5 26.5 L 719.5 26.5 M 0.5 48.5 L 719.5 48.5 M 0.5 59.5 L 719.5 59.5 M 0.5 70.5 L 719.5 70.5 M 0.5 81.5 L 719.5 81.5 M 0.5 102.5 L 719.5 102.5 M 0.5 113.5 L 719.5 113.5 M 0.5 124.5 L 719.5 124.5 M 0.5 135.5 L 719.5 135.5 M 0.5 157.5 L 719.5 157.5 M 0.5 167.5 L 719.5 167.5 M 0.5 178.5 L 719.5 178.5 M 0.5 189.5 L 719.5 189.5 M 0.5 211.5 L 719.5 211.5 M 0.5 222.5 L 719.5 222.5 M 0.5 232.5 L 719.5 232.5 M 0.5 243.5 L 719.5 243.5 M 0.5 265.5 L 719.5 265.5 M 0.5 276.5 L 719.5 276.5 M 0.5 287.5 L 719.5 287.5 M 0.5 297.5 L 719.5 297.5 M 0.5 319.5 L 719.5 319.5 M 0.5 330.5 L 719.5 330.5 M 0.5 341.5 L 719.5 341.5 M 0.5 352.5 L 719.5 352.5 M 0.5 373.5 L 719.5 373.5 M 0.5 384.5 L 719.5 384.5 M 0.5 395.5 L 719.5 395.5 M 0.5 406.5 L 719.5 406.5 M 0.5 427.5 L 719.5 427.5 M 0.5 438.5 L 719.5 438.5 M 0.5 449.5 L 719.5 449.5 M 0.5 460.5 L 719.5 460.5 M 0.5 482.5 L 719.5 482.5 M 0.5 492.5 L 719.5 492.5 M 0.5 503.5 L 719.5 503.5 M 0.5 514.5 L 719.5 514.5 M 0.5 536.5 L 719.5 536.5 M 0.5 547.5 L 719.5 547.5 M 0.5 557.5 L 719.5 557.5 M 0.5 568.5 L 719.5 568.5 M 0.5 590.5 L 719.5 590.5 M 0.5 601.5 L 719.5 601.5" stroke-opacity="0.23529411764705882" stroke-linecap="round" stroke-linejoin="round" stroke-miterlimit="10"/><path fill="none" stroke="rgb(0,0,0)" paint-order="fill stroke markers" d=" M 486.5 2.5 L 486.5 607.5" stroke-opacity="1" stroke-miterlimit="10"/><path fill="none" stroke="rgb(0,0,0)" paint-order="fill stroke markers" d=" M 486.5 1.5 L 482.5 5.5" stroke-opacity="1" stroke-miterlimit="10"/><path fill="none" stroke="rgb(0,0,0)" paint-order="fill stroke markers" d=" M 486.5 1.5 L 490.5 5.5" stroke-opacity="1" stroke-miterlimit="10"/><path fill="none" stroke="rgb(0,0,0)" paint-order="fill stroke markers" d=" M 0.5 362.5 L 717.5 362.5" stroke-opacity="1" stroke-miterlimit="10"/><path fill="none" stroke="rgb(0,0,0)" paint-order="fill stroke markers" d=" M 718.5 362.5 L 714.5 358.5" stroke-opacity="1" stroke-miterlimit="10"/><path fill="none" stroke="rgb(0,0,0)" paint-order="fill stroke markers" d=" M 718.5 362.5 L 714.5 366.5" stroke-opacity="1" stroke-miterlimit="10"/><text fill="rgb(0,0,0)" stroke="none" font-family="geogebra-sans-serif, sans-serif" font-size="12px" font-style="normal" font-weight="normal" text-decoration="normal" x="41" y="378" text-anchor="start" dominant-baseline="alphabetic" fill-opacity="1">–1.6</text><text fill="none" stroke="rgb(255,255,255)" font-family="geogebra-sans-serif, sans-serif" font-size="12px" font-style="normal" font-weight="normal" text-decoration="normal" x="41" y="378" text-anchor="start" dominant-baseline="alphabetic" stroke-opacity="1" stroke-linejoin="bevel" stroke-miterlimit="10" stroke-width="3">–1.6</text><text fill="rgb(0,0,0)" stroke="none" font-family="geogebra-sans-serif, sans-serif" font-size="12px" font-style="normal" font-weight="normal" text-decoration="normal" x="41" y="378" text-anchor="start" dominant-baseline="alphabetic" fill-opacity="1">–1.6</text><text fill="rgb(0,0,0)" stroke="none" font-family="geogebra-sans-serif, sans-serif" font-size="12px" font-style="normal" font-weight="normal" text-decoration="normal" x="95" y="378" text-anchor="start" dominant-baseline="alphabetic" fill-opacity="1">–1.4</text><text fill="none" stroke="rgb(255,255,255)" font-family="geogebra-sans-serif, sans-serif" font-size="12px" font-style="normal" font-weight="normal" text-decoration="normal" x="95" y="378" text-anchor="start" dominant-baseline="alphabetic" stroke-opacity="1" stroke-linejoin="bevel" stroke-miterlimit="10" stroke-width="3">–1.4</text><text fill="rgb(0,0,0)" stroke="none" font-family="geogebra-sans-serif, sans-serif" font-size="12px" font-style="normal" font-weight="normal" text-decoration="normal" x="95" y="378" text-anchor="start" dominant-baseline="alphabetic" fill-opacity="1">–1.4</text><text fill="rgb(0,0,0)" stroke="none" font-family="geogebra-sans-serif, sans-serif" font-size="12px" font-style="normal" font-weight="normal" text-decoration="normal" x="150" y="378" text-anchor="start" dominant-baseline="alphabetic" fill-opacity="1">–1.2</text><text fill="none" stroke="rgb(255,255,255)" font-family="geogebra-sans-serif, sans-serif" font-size="12px" font-style="normal" font-weight="normal" text-decoration="normal" x="150" y="378" text-anchor="start" dominant-baseline="alphabetic" stroke-opacity="1" stroke-linejoin="bevel" stroke-miterlimit="10" stroke-width="3">–1.2</text><text fill="rgb(0,0,0)" stroke="none" font-family="geogebra-sans-serif, sans-serif" font-size="12px" font-style="normal" font-weight="normal" text-decoration="normal" x="150" y="378" text-anchor="start" dominant-baseline="alphabetic" fill-opacity="1">–1.2</text><text fill="rgb(0,0,0)" stroke="none" font-family="geogebra-sans-serif, sans-serif" font-size="12px" font-style="normal" font-weight="normal" text-decoration="normal" x="210" y="378" text-anchor="start" dominant-baseline="alphabetic" fill-opacity="1">–1</text><text fill="none" stroke="rgb(255,255,255)" font-family="geogebra-sans-serif, sans-serif" font-size="12px" font-style="normal" font-weight="normal" text-decoration="normal" x="210" y="378" text-anchor="start" dominant-baseline="alphabetic" stroke-opacity="1" stroke-linejoin="bevel" stroke-miterlimit="10" stroke-width="3">–1</text><text fill="rgb(0,0,0)" stroke="none" font-family="geogebra-sans-serif, sans-serif" font-size="12px" font-style="normal" font-weight="normal" text-decoration="normal" x="210" y="378" text-anchor="start" dominant-baseline="alphabetic" fill-opacity="1">–1</text><text fill="rgb(0,0,0)" stroke="none" font-family="geogebra-sans-serif, sans-serif" font-size="12px" font-style="normal" font-weight="normal" text-decoration="normal" x="258" y="378" text-anchor="start" dominant-baseline="alphabetic" fill-opacity="1">–0.8</text><text fill="none" stroke="rgb(255,255,255)" font-family="geogebra-sans-serif, sans-serif" font-size="12px" font-style="normal" font-weight="normal" text-decoration="normal" x="258" y="378" text-anchor="start" dominant-baseline="alphabetic" stroke-opacity="1" stroke-linejoin="bevel" stroke-miterlimit="10" stroke-width="3">–0.8</text><text fill="rgb(0,0,0)" stroke="none" font-family="geogebra-sans-serif, sans-serif" font-size="12px" font-style="normal" font-weight="normal" text-decoration="normal" x="258" y="378" text-anchor="start" dominant-baseline="alphabetic" fill-opacity="1">–0.8</text><text fill="rgb(0,0,0)" stroke="none" font-family="geogebra-sans-serif, sans-serif" font-size="12px" font-style="normal" font-weight="normal" text-decoration="normal" x="312" y="378" text-anchor="start" dominant-baseline="alphabetic" fill-opacity="1">–0.6</text><text fill="none" stroke="rgb(255,255,255)" font-family="geogebra-sans-serif, sans-serif" font-size="12px" font-style="normal" font-weight="normal" text-decoration="normal" x="312" y="378" text-anchor="start" dominant-baseline="alphabetic" stroke-opacity="1" stroke-linejoin="bevel" stroke-miterlimit="10" stroke-width="3">–0.6</text><text fill="rgb(0,0,0)" stroke="none" font-family="geogebra-sans-serif, sans-serif" font-size="12px" font-style="normal" font-weight="normal" text-decoration="normal" x="312" y="378" text-anchor="start" dominant-baseline="alphabetic" fill-opacity="1">–0.6</text><text fill="rgb(0,0,0)" stroke="none" font-family="geogebra-sans-serif, sans-serif" font-size="12px" font-style="normal" font-weight="normal" text-decoration="normal" x="366" y="378" text-anchor="start" dominant-baseline="alphabetic" fill-opacity="1">–0.4</text><text fill="none" stroke="rgb(255,255,255)" font-family="geogebra-sans-serif, sans-serif" font-size="12px" font-style="normal" font-weight="normal" text-decoration="normal" x="366" y="378" text-anchor="start" dominant-baseline="alphabetic" stroke-opacity="1" stroke-linejoin="bevel" stroke-miterlimit="10" stroke-width="3">–0.4</text><text fill="rgb(0,0,0)" stroke="none" font-family="geogebra-sans-serif, sans-serif" font-size="12px" font-style="normal" font-weight="normal" text-decoration="normal" x="366" y="378" text-anchor="start" dominant-baseline="alphabetic" fill-opacity="1">–0.4</text><text fill="rgb(0,0,0)" stroke="none" font-family="geogebra-sans-serif, sans-serif" font-size="12px" font-style="normal" font-weight="normal" text-decoration="normal" x="420" y="378" text-anchor="start" dominant-baseline="alphabetic" fill-opacity="1">–0.2</text><text fill="none" stroke="rgb(255,255,255)" font-family="geogebra-sans-serif, sans-serif" font-size="12px" font-style="normal" font-weight="normal" text-decoration="normal" x="420" y="378" text-anchor="start" dominant-baseline="alphabetic" stroke-opacity="1" stroke-linejoin="bevel" stroke-miterlimit="10" stroke-width="3">–0.2</text><text fill="rgb(0,0,0)" stroke="none" font-family="geogebra-sans-serif, sans-serif" font-size="12px" font-style="normal" font-weight="normal" text-decoration="normal" x="420" y="378" text-anchor="start" dominant-baseline="alphabetic" fill-opacity="1">–0.2</text><text fill="rgb(0,0,0)" stroke="none" font-family="geogebra-sans-serif, sans-serif" font-size="12px" font-style="normal" font-weight="normal" text-decoration="normal" x="532" y="378" text-anchor="start" dominant-baseline="alphabetic" fill-opacity="1">0.2</text><text fill="none" stroke="rgb(255,255,255)" font-family="geogebra-sans-serif, sans-serif" font-size="12px" font-style="normal" font-weight="normal" text-decoration="normal" x="532" y="378" text-anchor="start" dominant-baseline="alphabetic" stroke-opacity="1" stroke-linejoin="bevel" stroke-miterlimit="10" stroke-width="3">0.2</text><text fill="rgb(0,0,0)" stroke="none" font-family="geogebra-sans-serif, sans-serif" font-size="12px" font-style="normal" font-weight="normal" text-decoration="normal" x="532" y="378" text-anchor="start" dominant-baseline="alphabetic" fill-opacity="1">0.2</text><text fill="rgb(0,0,0)" stroke="none" font-family="geogebra-sans-serif, sans-serif" font-size="12px" font-style="normal" font-weight="normal" text-decoration="normal" x="586" y="378" text-anchor="start" dominant-baseline="alphabetic" fill-opacity="1">0.4</text><text fill="none" stroke="rgb(255,255,255)" font-family="geogebra-sans-serif, sans-serif" font-size="12px" font-style="normal" font-weight="normal" text-decoration="normal" x="586" y="378" text-anchor="start" dominant-baseline="alphabetic" stroke-opacity="1" stroke-linejoin="bevel" stroke-miterlimit="10" stroke-width="3">0.4</text><text fill="rgb(0,0,0)" stroke="none" font-family="geogebra-sans-serif, sans-serif" font-size="12px" font-style="normal" font-weight="normal" text-decoration="normal" x="586" y="378" text-anchor="start" dominant-baseline="alphabetic" fill-opacity="1">0.4</text><text fill="rgb(0,0,0)" stroke="none" font-family="geogebra-sans-serif, sans-serif" font-size="12px" font-style="normal" font-weight="normal" text-decoration="normal" x="640" y="378" text-anchor="start" dominant-baseline="alphabetic" fill-opacity="1">0.6</text><text fill="none" stroke="rgb(255,255,255)" font-family="geogebra-sans-serif, sans-serif" font-size="12px" font-style="normal" font-weight="normal" text-decoration="normal" x="640" y="378" text-anchor="start" dominant-baseline="alphabetic" stroke-opacity="1" stroke-linejoin="bevel" stroke-miterlimit="10" stroke-width="3">0.6</text><text fill="rgb(0,0,0)" stroke="none" font-family="geogebra-sans-serif, sans-serif" font-size="12px" font-style="normal" font-weight="normal" text-decoration="normal" x="640" y="378" text-anchor="start" dominant-baseline="alphabetic" fill-opacity="1">0.6</text><text fill="rgb(0,0,0)" stroke="none" font-family="geogebra-sans-serif, sans-serif" font-size="12px" font-style="normal" font-weight="normal" text-decoration="normal" x="694" y="378" text-anchor="start" dominant-baseline="alphabetic" fill-opacity="1">0.8</text><text fill="none" stroke="rgb(255,255,255)" font-family="geogebra-sans-serif, sans-serif" font-size="12px" font-style="normal" font-weight="normal" text-decoration="normal" x="694" y="378" text-anchor="start" dominant-baseline="alphabetic" stroke-opacity="1" stroke-linejoin="bevel" stroke-miterlimit="10" stroke-width="3">0.8</text><text fill="rgb(0,0,0)" stroke="none" font-family="geogebra-sans-serif, sans-serif" font-size="12px" font-style="normal" font-weight="normal" text-decoration="normal" x="694" y="378" text-anchor="start" dominant-baseline="alphabetic" fill-opacity="1">0.8</text><text fill="rgb(0,0,0)" stroke="none" font-family="geogebra-sans-serif, sans-serif" font-size="12px" font-style="normal" font-weight="normal" text-decoration="normal" x="453" y="584" text-anchor="start" dominant-baseline="alphabetic" fill-opacity="1">–0.8</text><text fill="none" stroke="rgb(255,255,255)" font-family="geogebra-sans-serif, sans-serif" font-size="12px" font-style="normal" font-weight="normal" text-decoration="normal" x="453" y="584" text-anchor="start" dominant-baseline="alphabetic" stroke-opacity="1" stroke-linejoin="bevel" stroke-miterlimit="10" stroke-width="3">–0.8</text><text fill="rgb(0,0,0)" stroke="none" font-family="geogebra-sans-serif, sans-serif" font-size="12px" font-style="normal" font-weight="normal" text-decoration="normal" x="453" y="584" text-anchor="start" dominant-baseline="alphabetic" fill-opacity="1">–0.8</text><text fill="rgb(0,0,0)" stroke="none" font-family="geogebra-sans-serif, sans-serif" font-size="12px" font-style="normal" font-weight="normal" text-decoration="normal" x="453" y="530" text-anchor="start" dominant-baseline="alphabetic" fill-opacity="1">–0.6</text><text fill="none" stroke="rgb(255,255,255)" font-family="geogebra-sans-serif, sans-serif" font-size="12px" font-style="normal" font-weight="normal" text-decoration="normal" x="453" y="530" text-anchor="start" dominant-baseline="alphabetic" stroke-opacity="1" stroke-linejoin="bevel" stroke-miterlimit="10" stroke-width="3">–0.6</text><text fill="rgb(0,0,0)" stroke="none" font-family="geogebra-sans-serif, sans-serif" font-size="12px" font-style="normal" font-weight="normal" text-decoration="normal" x="453" y="530" text-anchor="start" dominant-baseline="alphabetic" fill-opacity="1">–0.6</text><text fill="rgb(0,0,0)" stroke="none" font-family="geogebra-sans-serif, sans-serif" font-size="12px" font-style="normal" font-weight="normal" text-decoration="normal" x="453" y="476" text-anchor="start" dominant-baseline="alphabetic" fill-opacity="1">–0.4</text><text fill="none" stroke="rgb(255,255,255)" font-family="geogebra-sans-serif, sans-serif" font-size="12px" font-style="normal" font-weight="normal" text-decoration="normal" x="453" y="476" text-anchor="start" dominant-baseline="alphabetic" stroke-opacity="1" stroke-linejoin="bevel" stroke-miterlimit="10" stroke-width="3">–0.4</text><text fill="rgb(0,0,0)" stroke="none" font-family="geogebra-sans-serif, sans-serif" font-size="12px" font-style="normal" font-weight="normal" text-decoration="normal" x="453" y="476" text-anchor="start" dominant-baseline="alphabetic" fill-opacity="1">–0.4</text><text fill="rgb(0,0,0)" stroke="none" font-family="geogebra-sans-serif, sans-serif" font-size="12px" font-style="normal" font-weight="normal" text-decoration="normal" x="453" y="422" text-anchor="start" dominant-baseline="alphabetic" fill-opacity="1">–0.2</text><text fill="none" stroke="rgb(255,255,255)" font-family="geogebra-sans-serif, sans-serif" font-size="12px" font-style="normal" font-weight="normal" text-decoration="normal" x="453" y="422" text-anchor="start" dominant-baseline="alphabetic" stroke-opacity="1" stroke-linejoin="bevel" stroke-miterlimit="10" stroke-width="3">–0.2</text><text fill="rgb(0,0,0)" stroke="none" font-family="geogebra-sans-serif, sans-serif" font-size="12px" font-style="normal" font-weight="normal" text-decoration="normal" x="453" y="422" text-anchor="start" dominant-baseline="alphabetic" fill-opacity="1">–0.2</text><text fill="rgb(0,0,0)" stroke="none" font-family="geogebra-sans-serif, sans-serif" font-size="12px" font-style="normal" font-weight="normal" text-decoration="normal" x="459" y="313" text-anchor="start" dominant-baseline="alphabetic" fill-opacity="1">0.2</text><text fill="none" stroke="rgb(255,255,255)" font-family="geogebra-sans-serif, sans-serif" font-size="12px" font-style="normal" font-weight="normal" text-decoration="normal" x="459" y="313" text-anchor="start" dominant-baseline="alphabetic" stroke-opacity="1" stroke-linejoin="bevel" stroke-miterlimit="10" stroke-width="3">0.2</text><text fill="rgb(0,0,0)" stroke="none" font-family="geogebra-sans-serif, sans-serif" font-size="12px" font-style="normal" font-weight="normal" text-decoration="normal" x="459" y="313" text-anchor="start" dominant-baseline="alphabetic" fill-opacity="1">0.2</text><text fill="rgb(0,0,0)" stroke="none" font-family="geogebra-sans-serif, sans-serif" font-size="12px" font-style="normal" font-weight="normal" text-decoration="normal" x="459" y="259" text-anchor="start" dominant-baseline="alphabetic" fill-opacity="1">0.4</text><text fill="none" stroke="rgb(255,255,255)" font-family="geogebra-sans-serif, sans-serif" font-size="12px" font-style="normal" font-weight="normal" text-decoration="normal" x="459" y="259" text-anchor="start" dominant-baseline="alphabetic" stroke-opacity="1" stroke-linejoin="bevel" stroke-miterlimit="10" stroke-width="3">0.4</text><text fill="rgb(0,0,0)" stroke="none" font-family="geogebra-sans-serif, sans-serif" font-size="12px" font-style="normal" font-weight="normal" text-decoration="normal" x="459" y="259" text-anchor="start" dominant-baseline="alphabetic" fill-opacity="1">0.4</text><text fill="rgb(0,0,0)" stroke="none" font-family="geogebra-sans-serif, sans-serif" font-size="12px" font-style="normal" font-weight="normal" text-decoration="normal" x="459" y="205" text-anchor="start" dominant-baseline="alphabetic" fill-opacity="1">0.6</text><text fill="none" stroke="rgb(255,255,255)" font-family="geogebra-sans-serif, sans-serif" font-size="12px" font-style="normal" font-weight="normal" text-decoration="normal" x="459" y="205" text-anchor="start" dominant-baseline="alphabetic" stroke-opacity="1" stroke-linejoin="bevel" stroke-miterlimit="10" stroke-width="3">0.6</text><text fill="rgb(0,0,0)" stroke="none" font-family="geogebra-sans-serif, sans-serif" font-size="12px" font-style="normal" font-weight="normal" text-decoration="normal" x="459" y="205" text-anchor="start" dominant-baseline="alphabetic" fill-opacity="1">0.6</text><text fill="rgb(0,0,0)" stroke="none" font-family="geogebra-sans-serif, sans-serif" font-size="12px" font-style="normal" font-weight="normal" text-decoration="normal" x="459" y="151" text-anchor="start" dominant-baseline="alphabetic" fill-opacity="1">0.8</text><text fill="none" stroke="rgb(255,255,255)" font-family="geogebra-sans-serif, sans-serif" font-size="12px" font-style="normal" font-weight="normal" text-decoration="normal" x="459" y="151" text-anchor="start" dominant-baseline="alphabetic" stroke-opacity="1" stroke-linejoin="bevel" stroke-miterlimit="10" stroke-width="3">0.8</text><text fill="rgb(0,0,0)" stroke="none" font-family="geogebra-sans-serif, sans-serif" font-size="12px" font-style="normal" font-weight="normal" text-decoration="normal" x="459" y="151" text-anchor="start" dominant-baseline="alphabetic" fill-opacity="1">0.8</text><text fill="rgb(0,0,0)" stroke="none" font-family="geogebra-sans-serif, sans-serif" font-size="12px" font-style="normal" font-weight="normal" text-decoration="normal" x="471" y="97" text-anchor="start" dominant-baseline="alphabetic" fill-opacity="1">1</text><text fill="none" stroke="rgb(255,255,255)" font-family="geogebra-sans-serif, sans-serif" font-size="12px" font-style="normal" font-weight="normal" text-decoration="normal" x="471" y="97" text-anchor="start" dominant-baseline="alphabetic" stroke-opacity="1" stroke-linejoin="bevel" stroke-miterlimit="10" stroke-width="3">1</text><text fill="rgb(0,0,0)" stroke="none" font-family="geogebra-sans-serif, sans-serif" font-size="12px" font-style="normal" font-weight="normal" text-decoration="normal" x="471" y="97" text-anchor="start" dominant-baseline="alphabetic" fill-opacity="1">1</text><text fill="rgb(0,0,0)" stroke="none" font-family="geogebra-sans-serif, sans-serif" font-size="12px" font-style="normal" font-weight="normal" text-decoration="normal" x="459" y="42" text-anchor="start" dominant-baseline="alphabetic" fill-opacity="1">1.2</text><text fill="none" stroke="rgb(255,255,255)" font-family="geogebra-sans-serif, sans-serif" font-size="12px" font-style="normal" font-weight="normal" text-decoration="normal" x="459" y="42" text-anchor="start" dominant-baseline="alphabetic" stroke-opacity="1" stroke-linejoin="bevel" stroke-miterlimit="10" stroke-width="3">1.2</text><text fill="rgb(0,0,0)" stroke="none" font-family="geogebra-sans-serif, sans-serif" font-size="12px" font-style="normal" font-weight="normal" text-decoration="normal" x="459" y="42" text-anchor="start" dominant-baseline="alphabetic" fill-opacity="1">1.2</text><text fill="rgb(0,0,0)" stroke="none" font-family="geogebra-sans-serif, sans-serif" font-size="12px" font-style="normal" font-weight="normal" text-decoration="normal" x="471" y="378" text-anchor="start" dominant-baseline="alphabetic" fill-opacity="1">0</text><text fill="none" stroke="rgb(255,255,255)" font-family="geogebra-sans-serif, sans-serif" font-size="12px" font-style="normal" font-weight="normal" text-decoration="normal" x="471" y="378" text-anchor="start" dominant-baseline="alphabetic" stroke-opacity="1" stroke-linejoin="bevel" stroke-miterlimit="10" stroke-width="3">0</text><text fill="rgb(0,0,0)" stroke="none" font-family="geogebra-sans-serif, sans-serif" font-size="12px" font-style="normal" font-weight="normal" text-decoration="normal" x="471" y="378" text-anchor="start" dominant-baseline="alphabetic" fill-opacity="1">0</text><path fill="rgb(0,0,255)" stroke="none" paint-order="stroke fill markers" d=" M 648.6875625623813 362.92240984689306 C 648.6875625623813 452.6977233716139 575.910291478844 525.4749944551515 486.13497795412354 525.4749944551515 C 396.359664429403 525.4749944551515 323.58239334586574 452.6977233716139 323.58239334586574 362.92240984689306 C 323.58239334586574 273.14709632217216 396.359664429403 200.36982523863463 486.13497795412354 200.36982523863463 C 575.910291478844 200.36982523863463 648.6875625623813 273.14709632217216 648.6875625623813 362.92240984689306 Z" fill-opacity="0.6"/><path fill="none" stroke="rgb(0,0,255)" paint-order="fill stroke markers" d=" M 648.6875625623813 362.92240984689306 C 648.6875625623813 452.6977233716139 575.910291478844 525.4749944551515 486.13497795412354 525.4749944551515 C 396.359664429403 525.4749944551515 323.58239334586574 452.6977233716139 323.58239334586574 362.92240984689306 C 323.58239334586574 273.14709632217216 396.359664429403 200.36982523863463 486.13497795412354 200.36982523863463 C 575.910291478844 200.36982523863463 648.6875625623813 273.14709632217216 648.6875625623813 362.92240984689306 Z" stroke-opacity="0.6980392156862745" stroke-linecap="round" stroke-linejoin="round" stroke-miterlimit="10" stroke-width="2.5"/><text fill="rgb(0,0,255)" stroke="none" font-family="geogebra-sans-serif, sans-serif" font-size="16px" font-style="normal" font-weight="normal" text-decoration="normal" x="404" y="244" text-anchor="start" dominant-baseline="alphabetic" fill-opacity="1">eq1</text><text fill="none" stroke="rgb(255,255,255)" font-family="geogebra-sans-serif, sans-serif" font-size="16px" font-style="normal" font-weight="normal" text-decoration="normal" x="404" y="244" text-anchor="start" dominant-baseline="alphabetic" stroke-opacity="1" stroke-linejoin="bevel" stroke-miterlimit="10" stroke-width="3">eq1</text><text fill="rgb(0,0,255)" stroke="none" font-family="geogebra-sans-serif, sans-serif" font-size="16px" font-style="normal" font-weight="normal" text-decoration="normal" x="404" y="244" text-anchor="start" dominant-baseline="alphabetic" fill-opacity="1">eq1</text><path fill="rgb(192,192,192)" stroke="none" paint-order="stroke fill markers" d=" M 502.5011370991915 314.0091161121709 C 502.5011370991915 358.8967728745313 466.11250155742283 395.28540841630013 421.2248447950626 395.28540841630013 C 376.33718803270233 395.28540841630013 339.9485524909337 358.8967728745313 339.9485524909337 314.0091161121709 C 339.9485524909337 269.12145934981044 376.33718803270233 232.73282380804167 421.2248447950626 232.73282380804167 C 466.11250155742283 232.73282380804167 502.5011370991915 269.12145934981044 502.5011370991915 314.0091161121709 Z" fill-opacity="0.7176470588235294"/><path fill="none" stroke="rgb(192,192,192)" paint-order="fill stroke markers" d=" M 502.5011370991915 314.0091161121709 C 502.5011370991915 358.8967728745313 466.11250155742283 395.28540841630013 421.2248447950626 395.28540841630013 C 376.33718803270233 395.28540841630013 339.9485524909337 358.8967728745313 339.9485524909337 314.0091161121709 C 339.9485524909337 269.12145934981044 376.33718803270233 232.73282380804167 421.2248447950626 232.73282380804167 C 466.11250155742283 232.73282380804167 502.5011370991915 269.12145934981044 502.5011370991915 314.0091161121709 Z" stroke-opacity="0.6980392156862745" stroke-linecap="round" stroke-linejoin="round" stroke-miterlimit="10" stroke-width="2.5"/><text fill="rgb(192,192,192)" stroke="none" font-family="geogebra-sans-serif, sans-serif" font-size="16px" font-style="normal" font-weight="normal" text-decoration="normal" x="380" y="264" text-anchor="start" dominant-baseline="alphabetic" fill-opacity="1">c</text><text fill="none" stroke="rgb(255,255,255)" font-family="geogebra-sans-serif, sans-serif" font-size="16px" font-style="normal" font-weight="normal" text-decoration="normal" x="380" y="264" text-anchor="start" dominant-baseline="alphabetic" stroke-opacity="1" stroke-linejoin="bevel" stroke-miterlimit="10" stroke-width="3">c</text><text fill="rgb(192,192,192)" stroke="none" font-family="geogebra-sans-serif, sans-serif" font-size="16px" font-style="normal" font-weight="normal" text-decoration="normal" x="380" y="264" text-anchor="start" dominant-baseline="alphabetic" fill-opacity="1">c</text><path fill="rgb(192,192,192)" stroke="none" paint-order="stroke fill markers" d=" M 502.5011370991915 411.83570358161523 C 502.5011370991915 456.7233603439756 466.11250155742283 493.1119958857444 421.2248447950626 493.1119958857444 C 376.33718803270233 493.1119958857444 339.9485524909337 456.7233603439756 339.9485524909337 411.83570358161523 C 339.9485524909337 366.9480468192548 376.33718803270233 330.559411277486 421.2248447950626 330.559411277486 C 466.11250155742283 330.559411277486 502.5011370991915 366.9480468192548 502.5011370991915 411.83570358161523 Z" fill-opacity="0.5686274509803921"/><path fill="none" stroke="rgb(192,192,192)" paint-order="fill stroke markers" d=" M 502.5011370991915 411.83570358161523 C 502.5011370991915 456.7233603439756 466.11250155742283 493.1119958857444 421.2248447950626 493.1119958857444 C 376.33718803270233 493.1119958857444 339.9485524909337 456.7233603439756 339.9485524909337 411.83570358161523 C 339.9485524909337 366.9480468192548 376.33718803270233 330.559411277486 421.2248447950626 330.559411277486 C 466.11250155742283 330.559411277486 502.5011370991915 366.9480468192548 502.5011370991915 411.83570358161523 Z" stroke-opacity="0.6980392156862745" stroke-linecap="round" stroke-linejoin="round" stroke-miterlimit="10" stroke-width="2.5"/><text fill="rgb(192,192,192)" stroke="none" font-family="geogebra-sans-serif, sans-serif" font-size="16px" font-style="normal" font-weight="normal" text-decoration="normal" x="380" y="362" text-anchor="start" dominant-baseline="alphabetic" fill-opacity="1">d</text><text fill="none" stroke="rgb(255,255,255)" font-family="geogebra-sans-serif, sans-serif" font-size="16px" font-style="normal" font-weight="normal" text-decoration="normal" x="380" y="362" text-anchor="start" dominant-baseline="alphabetic" stroke-opacity="1" stroke-linejoin="bevel" stroke-miterlimit="10" stroke-width="3">d</text><text fill="rgb(192,192,192)" stroke="none" font-family="geogebra-sans-serif, sans-serif" font-size="16px" font-style="normal" font-weight="normal" text-decoration="normal" x="380" y="362" text-anchor="start" dominant-baseline="alphabetic" fill-opacity="1">d</text><path fill="rgb(255,255,153)" stroke="none" paint-order="stroke fill markers" d=" M 573.4744179999043 362.92240984689306 C 573.4744179999043 411.15865064293894 534.3712187501692 450.26184989267426 486.1349779541235 450.26184989267426 C 437.89873715807784 450.26184989267426 398.7955379083426 411.15865064293894 398.7955379083426 362.92240984689306 C 398.7955379083426 314.68616905084724 437.89873715807784 275.58296980111186 486.1349779541235 275.58296980111186 C 534.3712187501692 275.58296980111186 573.4744179999043 314.68616905084724 573.4744179999043 362.92240984689306 Z" fill-opacity="0.8980392156862745"/><path fill="none" stroke="rgb(255,255,153)" paint-order="fill stroke markers" d=" M 573.4744179999043 362.92240984689306 C 573.4744179999043 411.15865064293894 534.3712187501692 450.26184989267426 486.1349779541235 450.26184989267426 C 437.89873715807784 450.26184989267426 398.7955379083426 411.15865064293894 398.7955379083426 362.92240984689306 C 398.7955379083426 314.68616905084724 437.89873715807784 275.58296980111186 486.1349779541235 275.58296980111186 C 534.3712187501692 275.58296980111186 573.4744179999043 314.68616905084724 573.4744179999043 362.92240984689306 Z" stroke-opacity="0.6980392156862745" stroke-linecap="round" stroke-linejoin="round" stroke-miterlimit="10" stroke-width="2.5"/><text fill="rgb(255,255,153)" stroke="none" font-family="geogebra-sans-serif, sans-serif" font-size="16px" font-style="normal" font-weight="normal" text-decoration="normal" x="442" y="308" text-anchor="start" dominant-baseline="alphabetic" fill-opacity="1">eq2</text><text fill="none" stroke="rgb(255,255,255)" font-family="geogebra-sans-serif, sans-serif" font-size="16px" font-style="normal" font-weight="normal" text-decoration="normal" x="442" y="308" text-anchor="start" dominant-baseline="alphabetic" stroke-opacity="1" stroke-linejoin="bevel" stroke-miterlimit="10" stroke-width="3">eq2</text><text fill="rgb(255,255,153)" stroke="none" font-family="geogebra-sans-serif, sans-serif" font-size="16px" font-style="normal" font-weight="normal" text-decoration="normal" x="442" y="308" text-anchor="start" dominant-baseline="alphabetic" fill-opacity="1">eq2</text><path fill="rgb(64,64,64)" stroke="none" paint-order="stroke fill markers" d=" M 426.2248447950626 314.0091161121709 C 426.2248447950626 316.77053986132483 423.98626854421656 319.0091161121709 421.2248447950626 319.0091161121709 C 418.46342104590866 319.0091161121709 416.2248447950626 316.77053986132483 416.2248447950626 314.0091161121709 C 416.2248447950626 311.24769236301694 418.46342104590866 309.0091161121709 421.2248447950626 309.0091161121709 C 423.98626854421656 309.0091161121709 426.2248447950626 311.24769236301694 426.2248447950626 314.0091161121709 Z" fill-opacity="1"/><path fill="none" stroke="rgb(0,0,0)" paint-order="fill stroke markers" d=" M 426.2248447950626 314.0091161121709 C 426.2248447950626 316.77053986132483 423.98626854421656 319.0091161121709 421.2248447950626 319.0091161121709 C 418.46342104590866 319.0091161121709 416.2248447950626 316.77053986132483 416.2248447950626 314.0091161121709 C 416.2248447950626 311.24769236301694 418.46342104590866 309.0091161121709 421.2248447950626 309.0091161121709 C 423.98626854421656 309.0091161121709 426.2248447950626 311.24769236301694 426.2248447950626 314.0091161121709 Z" stroke-opacity="1" stroke-linecap="round" stroke-linejoin="round" stroke-miterlimit="10"/><text fill="rgb(64,64,64)" stroke="none" font-family="geogebra-sans-serif, sans-serif" font-size="16px" font-style="normal" font-weight="normal" text-decoration="normal" x="425" y="304" text-anchor="start" dominant-baseline="alphabetic" fill-opacity="1">C</text><text fill="none" stroke="rgb(255,255,255)" font-family="geogebra-sans-serif, sans-serif" font-size="16px" font-style="normal" font-weight="normal" text-decoration="normal" x="425" y="304" text-anchor="start" dominant-baseline="alphabetic" stroke-opacity="1" stroke-linejoin="bevel" stroke-miterlimit="10" stroke-width="3">C</text><text fill="rgb(64,64,64)" stroke="none" font-family="geogebra-sans-serif, sans-serif" font-size="16px" font-style="normal" font-weight="normal" text-decoration="normal" x="425" y="304" text-anchor="start" dominant-baseline="alphabetic" fill-opacity="1">C</text><path fill="rgb(77,77,255)" stroke="none" paint-order="stroke fill markers" d=" M 426.2248447950626 411.83570358161523 C 426.2248447950626 414.5971273307692 423.98626854421656 416.83570358161523 421.2248447950626 416.83570358161523 C 418.46342104590866 416.83570358161523 416.2248447950626 414.5971273307692 416.2248447950626 411.83570358161523 C 416.2248447950626 409.0742798324613 418.46342104590866 406.83570358161523 421.2248447950626 406.83570358161523 C 423.98626854421656 406.83570358161523 426.2248447950626 409.0742798324613 426.2248447950626 411.83570358161523 Z" fill-opacity="1"/><path fill="none" stroke="rgb(0,0,0)" paint-order="fill stroke markers" d=" M 426.2248447950626 411.83570358161523 C 426.2248447950626 414.5971273307692 423.98626854421656 416.83570358161523 421.2248447950626 416.83570358161523 C 418.46342104590866 416.83570358161523 416.2248447950626 414.5971273307692 416.2248447950626 411.83570358161523 C 416.2248447950626 409.0742798324613 418.46342104590866 406.83570358161523 421.2248447950626 406.83570358161523 C 423.98626854421656 406.83570358161523 426.2248447950626 409.0742798324613 426.2248447950626 411.83570358161523 Z" stroke-opacity="1" stroke-linecap="round" stroke-linejoin="round" stroke-miterlimit="10"/><text fill="rgb(77,77,255)" stroke="none" font-family="geogebra-sans-serif, sans-serif" font-size="16px" font-style="normal" font-weight="normal" text-decoration="normal" x="425" y="402" text-anchor="start" dominant-baseline="alphabetic" fill-opacity="1">B</text><text fill="none" stroke="rgb(255,255,255)" font-family="geogebra-sans-serif, sans-serif" font-size="16px" font-style="normal" font-weight="normal" text-decoration="normal" x="425" y="402" text-anchor="start" dominant-baseline="alphabetic" stroke-opacity="1" stroke-linejoin="bevel" stroke-miterlimit="10" stroke-width="3">B</text><text fill="rgb(77,77,255)" stroke="none" font-family="geogebra-sans-serif, sans-serif" font-size="16px" font-style="normal" font-weight="normal" text-decoration="normal" x="425" y="402" text-anchor="start" dominant-baseline="alphabetic" fill-opacity="1">B</text><path fill="rgb(68,68,68)" stroke="none" paint-order="stroke fill markers" d=" M 490.1349779541235 362.92240984689306 C 490.1349779541235 365.1315488462162 488.34411695344664 366.92240984689306 486.1349779541235 366.92240984689306 C 483.9258389548003 366.92240984689306 482.1349779541235 365.1315488462162 482.1349779541235 362.92240984689306 C 482.1349779541235 360.7132708475699 483.9258389548003 358.92240984689306 486.1349779541235 358.92240984689306 C 488.34411695344664 358.92240984689306 490.1349779541235 360.7132708475699 490.1349779541235 362.92240984689306 Z" fill-opacity="1"/><path fill="none" stroke="rgb(0,0,0)" paint-order="fill stroke markers" d=" M 490.1349779541235 362.92240984689306 C 490.1349779541235 365.1315488462162 488.34411695344664 366.92240984689306 486.1349779541235 366.92240984689306 C 483.9258389548003 366.92240984689306 482.1349779541235 365.1315488462162 482.1349779541235 362.92240984689306 C 482.1349779541235 360.7132708475699 483.9258389548003 358.92240984689306 486.1349779541235 358.92240984689306 C 488.34411695344664 358.92240984689306 490.1349779541235 360.7132708475699 490.1349779541235 362.92240984689306 Z" stroke-opacity="1" stroke-linecap="round" stroke-linejoin="round" stroke-miterlimit="10"/><text fill="rgb(68,68,68)" stroke="none" font-family="geogebra-sans-serif, sans-serif" font-size="16px" font-style="normal" font-weight="normal" text-decoration="normal" x="490" y="355" text-anchor="start" dominant-baseline="alphabetic" fill-opacity="1">A</text><text fill="none" stroke="rgb(255,255,255)" font-family="geogebra-sans-serif, sans-serif" font-size="16px" font-style="normal" font-weight="normal" text-decoration="normal" x="490" y="355" text-anchor="start" dominant-baseline="alphabetic" stroke-opacity="1" stroke-linejoin="bevel" stroke-miterlimit="10" stroke-width="3">A</text><text fill="rgb(68,68,68)" stroke="none" font-family="geogebra-sans-serif, sans-serif" font-size="16px" font-style="normal" font-weight="normal" text-decoration="normal" x="490" y="355" text-anchor="start" dominant-baseline="alphabetic" fill-opacity="1">A</text></g></g></svg>